<svg xmlns="http://www.w3.org/2000/svg" xmlns:xlink="http://www.w3.org/1999/xlink" viewBox="0 0 903.3 925.34"><defs><style>.cls-1{fill:url(#linear-gradient);}.cls-2{fill:url(#linear-gradient-2);}.cls-3{fill:url(#linear-gradient-3);}.cls-4{fill:url(#linear-gradient-4);}.cls-5{fill:url(#linear-gradient-5);}.cls-6{fill:url(#linear-gradient-6);}.cls-7{fill:url(#linear-gradient-7);}.cls-8{fill:url(#linear-gradient-8);}.cls-9{fill:url(#linear-gradient-9);}.cls-10{fill:url(#linear-gradient-10);}.cls-11{fill:url(#linear-gradient-11);}.cls-12{fill:url(#linear-gradient-12);}.cls-13{fill:url(#linear-gradient-13);}.cls-14{fill:url(#linear-gradient-14);}.cls-15{fill:url(#linear-gradient-15);}.cls-16{fill:url(#linear-gradient-16);}.cls-17{fill:url(#linear-gradient-17);}.cls-18{fill:url(#linear-gradient-18);}.cls-19{fill:url(#linear-gradient-19);}.cls-20{fill:url(#linear-gradient-20);}.cls-21{fill:url(#linear-gradient-21);}.cls-22{fill:url(#linear-gradient-22);}.cls-23{fill:url(#linear-gradient-23);}.cls-24{fill:url(#linear-gradient-24);}.cls-25{fill:url(#linear-gradient-25);}.cls-26{fill:url(#linear-gradient-26);}.cls-27{fill:url(#linear-gradient-27);}.cls-28{fill:url(#linear-gradient-28);}.cls-29{fill:url(#linear-gradient-29);}.cls-30{fill:url(#linear-gradient-30);}.cls-31{fill:url(#linear-gradient-31);}.cls-32{fill:url(#linear-gradient-32);}.cls-33{fill:url(#linear-gradient-33);}.cls-34{fill:url(#linear-gradient-34);}.cls-35{fill:url(#linear-gradient-35);}.cls-36{fill:url(#linear-gradient-36);}.cls-37{fill:url(#linear-gradient-37);}.cls-38{fill:url(#linear-gradient-38);}.cls-39{fill:url(#linear-gradient-39);}.cls-40{fill:url(#linear-gradient-40);}.cls-41{fill:url(#linear-gradient-41);}.cls-42{fill:url(#linear-gradient-42);}.cls-43{fill:url(#linear-gradient-43);}.cls-44{fill:url(#linear-gradient-44);}</style><linearGradient id="linear-gradient" x1="207.74" y1="-197.91" x2="1017.11" y2="780.69" gradientUnits="userSpaceOnUse"><stop offset="0" stop-color="#ff9f4f"/><stop offset="1" stop-color="#ff4e63"/></linearGradient><linearGradient id="linear-gradient-2" x1="-2.75" y1="-23.82" x2="806.63" y2="954.78" xlink:href="#linear-gradient"/><linearGradient id="linear-gradient-3" x1="0.86" y1="-26.81" x2="810.23" y2="951.8" xlink:href="#linear-gradient"/><linearGradient id="linear-gradient-4" x1="256.18" y1="-237.97" x2="1065.55" y2="740.63" xlink:href="#linear-gradient"/><linearGradient id="linear-gradient-5" x1="-36.2" y1="3.84" x2="773.18" y2="982.45" xlink:href="#linear-gradient"/><linearGradient id="linear-gradient-6" x1="-62.04" y1="25.22" x2="747.33" y2="1003.82" xlink:href="#linear-gradient"/><linearGradient id="linear-gradient-7" x1="205.48" y1="-196.04" x2="1014.85" y2="782.56" xlink:href="#linear-gradient"/><linearGradient id="linear-gradient-8" x1="164.38" y1="-162.05" x2="973.75" y2="816.56" xlink:href="#linear-gradient"/><linearGradient id="linear-gradient-9" x1="107.89" y1="-115.33" x2="917.27" y2="863.27" xlink:href="#linear-gradient"/><linearGradient id="linear-gradient-10" x1="-127.79" y1="79.6" x2="681.58" y2="1058.2" xlink:href="#linear-gradient"/><linearGradient id="linear-gradient-11" x1="138.42" y1="-140.58" x2="947.79" y2="838.02" xlink:href="#linear-gradient"/><linearGradient id="linear-gradient-12" x1="-217.28" y1="153.61" x2="592.09" y2="1132.22" xlink:href="#linear-gradient"/><linearGradient id="linear-gradient-13" x1="-226.35" y1="161.11" x2="583.02" y2="1139.71" xlink:href="#linear-gradient"/><linearGradient id="linear-gradient-14" x1="202.18" y1="-193.31" x2="1011.55" y2="785.3" xlink:href="#linear-gradient"/><linearGradient id="linear-gradient-15" x1="315.76" y1="-287.25" x2="1125.13" y2="691.35" xlink:href="#linear-gradient"/><linearGradient id="linear-gradient-16" x1="38.24" y1="-57.72" x2="847.61" y2="920.89" xlink:href="#linear-gradient"/><linearGradient id="linear-gradient-17" x1="3.77" y1="-29.21" x2="813.14" y2="949.39" xlink:href="#linear-gradient"/><linearGradient id="linear-gradient-18" x1="-4.4" y1="-20.21" x2="803.79" y2="956.97" xlink:href="#linear-gradient"/><linearGradient id="linear-gradient-19" x1="21.58" y1="-43.94" x2="830.95" y2="934.67" xlink:href="#linear-gradient"/><linearGradient id="linear-gradient-20" x1="48.51" y1="-66.21" x2="857.88" y2="912.39" xlink:href="#linear-gradient"/><linearGradient id="linear-gradient-21" x1="-31.78" y1="0.2" x2="777.59" y2="978.8" xlink:href="#linear-gradient"/><linearGradient id="linear-gradient-22" x1="-58.71" y1="22.47" x2="750.66" y2="1001.08" xlink:href="#linear-gradient"/><linearGradient id="linear-gradient-23" x1="-3.55" y1="-23.16" x2="805.82" y2="955.44" xlink:href="#linear-gradient"/><linearGradient id="linear-gradient-24" x1="138.34" y1="-140.51" x2="947.71" y2="838.09" xlink:href="#linear-gradient"/><linearGradient id="linear-gradient-25" x1="69.55" y1="-83.62" x2="878.93" y2="894.98" xlink:href="#linear-gradient"/><linearGradient id="linear-gradient-26" x1="-15.35" y1="-13.4" x2="794.02" y2="965.21" xlink:href="#linear-gradient"/><linearGradient id="linear-gradient-27" x1="-65.46" y1="28.05" x2="743.91" y2="1006.65" xlink:href="#linear-gradient"/><linearGradient id="linear-gradient-28" x1="-73.57" y1="34.76" x2="735.8" y2="1013.36" xlink:href="#linear-gradient"/><linearGradient id="linear-gradient-29" x1="-73.57" y1="34.76" x2="735.8" y2="1013.36" xlink:href="#linear-gradient"/><linearGradient id="linear-gradient-30" x1="-69.69" y1="31.54" x2="739.68" y2="1010.15" xlink:href="#linear-gradient"/><linearGradient id="linear-gradient-31" x1="-314.29" y1="226.39" x2="503.29" y2="1214.91" xlink:href="#linear-gradient"/><linearGradient id="linear-gradient-32" x1="-281.05" y1="198.74" x2="536.2" y2="1186.87" xlink:href="#linear-gradient"/><linearGradient id="linear-gradient-33" x1="-306.97" y1="230.45" x2="499.65" y2="1205.73" xlink:href="#linear-gradient"/><linearGradient id="linear-gradient-34" x1="-279.56" y1="207.48" x2="527.18" y2="1182.91" xlink:href="#linear-gradient"/><linearGradient id="linear-gradient-35" x1="245.59" y1="-221.63" x2="1049.78" y2="750.7" xlink:href="#linear-gradient"/><linearGradient id="linear-gradient-36" x1="278.9" y1="-249.2" x2="1083.3" y2="723.39" xlink:href="#linear-gradient"/><linearGradient id="linear-gradient-37" x1="240.79" y1="-232.09" x2="1054.55" y2="751.81" xlink:href="#linear-gradient"/><linearGradient id="linear-gradient-38" x1="268.64" y1="-254.53" x2="1082.2" y2="729.14" xlink:href="#linear-gradient"/><linearGradient id="linear-gradient-39" x1="367.74" y1="-336.64" x2="1185.32" y2="651.89" xlink:href="#linear-gradient"/><linearGradient id="linear-gradient-40" x1="400.96" y1="-364.3" x2="1218.21" y2="623.82" xlink:href="#linear-gradient"/><linearGradient id="linear-gradient-41" x1="371.6" y1="-337.04" x2="1185.35" y2="646.86" xlink:href="#linear-gradient"/><linearGradient id="linear-gradient-42" x1="399.38" y1="-359.56" x2="1212.94" y2="624.1" xlink:href="#linear-gradient"/><linearGradient id="linear-gradient-43" x1="-183.23" y1="125.45" x2="626.14" y2="1104.05" xlink:href="#linear-gradient"/><linearGradient id="linear-gradient-44" x1="385.03" y1="-344.54" x2="1194.4" y2="634.06" xlink:href="#linear-gradient"/></defs><g id="Layer_2" data-name="Layer 2"><g id="Layer_1-2" data-name="Layer 1"><path class="cls-1" d="M677.4,338.94a9.19,9.19,0,0,1-8.28-13.19l45.7-94.9a23.38,23.38,0,0,0-10.92-31.16L536.35,119.11A23.33,23.33,0,0,0,505.19,130L429.74,284.66a9.2,9.2,0,0,1-16.53-8.07L488.63,122a41.78,41.78,0,0,1,55.69-19.48l167.55,80.59a41.75,41.75,0,0,1,19.53,55.71l-45.71,94.9A9.19,9.19,0,0,1,677.4,338.94Z"/><path class="cls-2" d="M504.52,653.61a41.56,41.56,0,0,1-18-4.12L402.38,609a9.19,9.19,0,1,1,8-16.57l84.11,40.45A23.36,23.36,0,0,0,525.62,622l39.89-82.64a9.19,9.19,0,1,1,16.56,8L542.19,630A41.78,41.78,0,0,1,504.52,653.61Z"/><path class="cls-3" d="M548.05,599.34a9.11,9.11,0,0,1-4-.91l-122.67-59a9.2,9.2,0,1,1,8-16.58l122.67,59a9.2,9.2,0,0,1-4,17.49Z"/><path class="cls-4" d="M717.29,249.7a9.11,9.11,0,0,1-4-.91L496.15,144.34a9.2,9.2,0,0,1,8-16.58L721.28,232.21a9.2,9.2,0,0,1-4,17.49Z"/><path class="cls-5" d="M443.75,584.9a9.25,9.25,0,0,1-4-.91l-23.21-11.17a9.19,9.19,0,1,1,8-16.57l23.21,11.16a9.2,9.2,0,0,1-4,17.49Z"/><path class="cls-6" d="M173.61,722.78a9.2,9.2,0,0,1-8.28-13.19l65.45-136.08L257,427.27a82.89,82.89,0,0,1,35.22-65.59L431.6,265A42.26,42.26,0,0,1,481,333.58l-98.6,73.65a215.35,215.35,0,0,1,37.51,62.46c15.05,39.48,22.48,100-27.58,164.19a9.2,9.2,0,0,1-14.51-11.31c35.81-45.92,44.27-95,25.13-145.74-14.56-38.63-40.38-64-40.64-64.25a9.2,9.2,0,0,1,.89-14L470,318.84a23.86,23.86,0,0,0-27.93-38.69L302.76,376.77a64.41,64.41,0,0,0-27.35,51.56,9.17,9.17,0,0,1-.15,1.48L248.67,578a9.39,9.39,0,0,1-.77,2.37l-66,137.2A9.2,9.2,0,0,1,173.61,722.78Z"/><path class="cls-7" d="M640.79,415a39.45,39.45,0,0,1-38-28.85h0a39.42,39.42,0,0,1,27.4-48.49l61-16.95a39.39,39.39,0,0,1,21.09,75.9l-61,16.94A39.13,39.13,0,0,1,640.79,415Zm61-77.34a21.48,21.48,0,0,0-5.65.77l-61,16.95a21,21,0,0,0-14.6,25.85h0a21,21,0,0,0,25.84,14.6l61-16.94a21,21,0,0,0-5.59-41.23Z"/><path class="cls-8" d="M627.25,482.32a39.46,39.46,0,0,1-38-28.85h0A39.42,39.42,0,0,1,616.69,405l61-17a39.39,39.39,0,0,1,21.09,75.9l-61,16.94A39.13,39.13,0,0,1,627.25,482.32ZM607,448.55a21,21,0,0,0,25.85,14.6l61-16.95a21,21,0,1,0-11.24-40.45l-61,16.95A21,21,0,0,0,607,448.55Z"/><path class="cls-9" d="M592.27,555.05a39.45,39.45,0,0,1-38-28.85h0a39.37,39.37,0,0,1,27.4-48.49l61-16.95a39.39,39.39,0,0,1,21.09,75.9l-61,16.94A39.13,39.13,0,0,1,592.27,555.05ZM572,521.28a21,21,0,0,0,25.84,14.6l61-16.94a21,21,0,1,0-11.24-40.46l-61,16.95A21,21,0,0,0,572,521.28Z"/><path class="cls-10" d="M327.52,825.48a9.2,9.2,0,0,1-8.28-13.19l61.84-128.57a9.22,9.22,0,0,1,8.5-5.21c26.53.6,50.24-6.34,70.42-20.63,15.2-10.76,22.64-21.92,22.72-22a9.2,9.2,0,0,1,15.41,10c-1.35,2.09-33.21,50-103,51L335.82,820.27A9.21,9.21,0,0,1,327.52,825.48Z"/><path class="cls-11" d="M230.68,141.46a9.2,9.2,0,0,1-4.79-17.05,425.56,425.56,0,0,1,221.47-62,9.2,9.2,0,0,1,0,18.4,407.07,407.07,0,0,0-211.9,59.28A9.18,9.18,0,0,1,230.68,141.46Z"/><path class="cls-12" d="M41.29,593.8a9.21,9.21,0,0,1-8.95-7.09A429,429,0,0,1,42,356.45a9.2,9.2,0,0,1,17.49,5.7A410.72,410.72,0,0,0,50.25,582.5a9.21,9.21,0,0,1-6.85,11.06A9.62,9.62,0,0,1,41.29,593.8Z"/><path class="cls-13" d="M447.36,915.09a421.87,421.87,0,0,1-192.13-45.65,430.31,430.31,0,0,1-146.86-122.1A9.2,9.2,0,1,1,123,736.17,411.89,411.89,0,0,0,263.53,853a403.71,403.71,0,0,0,183.83,43.66A412.22,412.22,0,0,0,521,890.07a9.19,9.19,0,1,1,3.3,18.09A429.47,429.47,0,0,1,447.36,915.09Z"/><path class="cls-14" d="M846.84,619.83a9,9,0,0,1-2.44-.33A9.19,9.19,0,0,1,838,608.2c3.4-12.36,6.24-25,8.45-37.68a9.2,9.2,0,1,1,18.12,3.17c-2.31,13.21-5.28,26.46-8.83,39.38A9.22,9.22,0,0,1,846.84,619.83Z"/><path class="cls-15" d="M855.34,410.72a9.2,9.2,0,0,1-9-7.29A403.53,403.53,0,0,0,777.3,248.84,9.2,9.2,0,0,1,792.17,238a421.72,421.72,0,0,1,72.17,161.6,9.2,9.2,0,0,1-7.08,10.91A9.79,9.79,0,0,1,855.34,410.72Z"/><path class="cls-16" d="M883.09,793.22H550.78a9.2,9.2,0,0,1-9.2-9.2V741.75a9.2,9.2,0,0,1,9.2-9.2H883.09a9.2,9.2,0,0,1,9.19,9.2V784A9.2,9.2,0,0,1,883.09,793.22ZM560,774.82H873.89V751H560Z"/><path class="cls-17" d="M833.5,925.34H600.36a9.2,9.2,0,0,1-9-7.14l-29.8-130.14a9.2,9.2,0,0,1,17.93-4.1l28.17,123H826.17l28.17-123a9.2,9.2,0,0,1,17.93,4.1L842.47,918.2A9.2,9.2,0,0,1,833.5,925.34Z"/><path class="cls-18" d="M716.71,894a9,9,0,0,1-9-9.2V818.57a9,9,0,1,1,18,0v66.22A9,9,0,0,1,716.71,894Z"/><path class="cls-19" d="M758.2,894.14a9.18,9.18,0,0,1-9.13-10.35l8.4-66.35a9.2,9.2,0,1,1,18.25,2.31l-8.4,66.35A9.2,9.2,0,0,1,758.2,894.14Z"/><path class="cls-20" d="M799.35,894.15a9.34,9.34,0,0,1-2.26-.29,9.19,9.19,0,0,1-6.66-11.17l16.8-66.35a9.2,9.2,0,1,1,17.83,4.51l-16.8,66.35A9.2,9.2,0,0,1,799.35,894.15Z"/><path class="cls-21" d="M676.72,894.14a9.2,9.2,0,0,1-9.12-8l-8.4-66.35a9.2,9.2,0,0,1,18.25-2.31l8.4,66.35a9.18,9.18,0,0,1-9.13,10.35Z"/><path class="cls-22" d="M635.57,894.15a9.2,9.2,0,0,1-8.91-6.95l-16.8-66.35a9.2,9.2,0,0,1,17.83-4.51l16.8,66.35a9.19,9.19,0,0,1-6.66,11.17A9.28,9.28,0,0,1,635.57,894.15Z"/><path class="cls-23" d="M566.7,750.17a9.2,9.2,0,0,1-7.28-14.8l52.69-68.47a9.2,9.2,0,0,1,12.68-1.85L660,690.49A9.2,9.2,0,0,1,649.2,705.4l-28-20.21L574,746.58A9.17,9.17,0,0,1,566.7,750.17Z"/><path class="cls-24" d="M851.2,748.57a9.2,9.2,0,0,1-9-7.51l-11.4-60.81-44,6.51a9.2,9.2,0,0,1-2.69-18.2l52.76-7.8a9.18,9.18,0,0,1,10.38,7.4l13,69.52a9.21,9.21,0,0,1-7.35,10.73A9,9,0,0,1,851.2,748.57Z"/><path class="cls-25" d="M662.27,748.57a9.2,9.2,0,0,1-8.33-5.29,78.08,78.08,0,1,1,142.67-2.74,9.2,9.2,0,1,1-16.94-7.16,59.69,59.69,0,1,0-109.08,2.09,9.19,9.19,0,0,1-8.32,13.1Z"/><path class="cls-26" d="M237.48,291.72A9.18,9.18,0,0,1,231,289L94.84,152.89,20,162.05a9.2,9.2,0,0,1-5.37-17.28l62.45-32.55a9.18,9.18,0,0,1,8.11-.19l190.1,88.12a9.21,9.21,0,0,1,4.49,12.19l-34,74a9.2,9.2,0,0,1-6.73,5.22A9,9,0,0,1,237.48,291.72ZM113.27,145.3,234.64,266.67,259.28,213ZM81.6,130.63l-13.42,7,22.55-2.76Z"/><path class="cls-27" d="M158.4,390.58a9.2,9.2,0,0,1-6.51-2.69L2.69,238.69a9.22,9.22,0,0,1-2.62-7.61l9.54-79a9.2,9.2,0,0,1,8-8l79.43-10a9.17,9.17,0,0,1,7.65,2.62l149.2,149.2a9.2,9.2,0,0,1,0,13l-89,89A9.19,9.19,0,0,1,158.4,390.58ZM18.87,228.85,158.4,368.38l76-76L94.85,152.9,27,161.45Z"/><path class="cls-28" d="M57.43,175A11.6,11.6,0,1,1,41,175,11.59,11.59,0,0,1,57.43,175Z"/><path class="cls-29" d="M49.22,204a20.8,20.8,0,1,1,14.71-35.51h0A20.8,20.8,0,0,1,49.22,204Zm0-23.2a2.34,2.34,0,0,0-1.69.7,2.4,2.4,0,0,0,0,3.4,2.4,2.4,0,0,0,3.39,0,2.4,2.4,0,0,0,0-3.4A2.35,2.35,0,0,0,49.22,180.83Z"/><path class="cls-30" d="M45.58,189a9.15,9.15,0,0,1-6.5-2.7l-28.5-28.49a30.32,30.32,0,0,1,0-42.83,9.2,9.2,0,0,1,13,13,11.9,11.9,0,0,0,0,16.82l28.49,28.5a9.2,9.2,0,0,1-6.5,15.7Z"/><path class="cls-31" d="M53.46,671.63H38.74a9.51,9.51,0,0,1,0-19H53.46a9.5,9.5,0,0,1,0,19Z"/><path class="cls-32" d="M110.48,671.63H93.93a9.5,9.5,0,0,1,0-19h16.55a9.5,9.5,0,0,1,0,19Z"/><path class="cls-33" d="M73.71,707.28a9,9,0,0,1-9-9.2V683.37a9,9,0,1,1,18,0v14.71A9,9,0,0,1,73.71,707.28Z"/><path class="cls-34" d="M73.71,652.1a9,9,0,0,1-9-9.2V626.34a9,9,0,1,1,18,0V642.9A9,9,0,0,1,73.71,652.1Z"/><path class="cls-35" d="M837.08,493.63H822.36a9,9,0,1,1,0-18h14.72a9,9,0,1,1,0,18Z"/><path class="cls-36" d="M894.1,493.63H877.55a9,9,0,1,1,0-18H894.1a9,9,0,1,1,0,18Z"/><path class="cls-37" d="M857.21,529.77a9.46,9.46,0,0,1-9.5-9.2V505.86a9.5,9.5,0,0,1,19,0v14.71A9.46,9.46,0,0,1,857.21,529.77Z"/><path class="cls-38" d="M857.21,474.59a9.46,9.46,0,0,1-9.5-9.2V448.83a9.51,9.51,0,0,1,19,0v16.56A9.46,9.46,0,0,1,857.21,474.59Z"/><path class="cls-39" d="M690.84,54.63H676.12a9.51,9.51,0,0,1,0-19h14.72a9.5,9.5,0,0,1,0,19Z"/><path class="cls-40" d="M747.86,54.63H731.31a9.5,9.5,0,0,1,0-19h16.55a9.5,9.5,0,0,1,0,19Z"/><path class="cls-41" d="M711.21,90.13a9.45,9.45,0,0,1-9.5-9.19V66.22a9.5,9.5,0,0,1,19,0V80.94A9.45,9.45,0,0,1,711.21,90.13Z"/><path class="cls-42" d="M711.21,35a9.46,9.46,0,0,1-9.5-9.2V9.2a9.5,9.5,0,0,1,19,0V25.75A9.46,9.46,0,0,1,711.21,35Z"/><path class="cls-43" d="M139,539.71a24.66,24.66,0,1,1,24.66-24.66A24.68,24.68,0,0,1,139,539.71Zm0-30.92a6.27,6.27,0,1,0,6.27,6.26A6.27,6.27,0,0,0,139,508.79Z"/><path class="cls-44" d="M786.75,165.83a24.66,24.66,0,1,1,24.66-24.66A24.68,24.68,0,0,1,786.75,165.83Zm0-30.92a6.26,6.26,0,1,0,6.27,6.26A6.27,6.27,0,0,0,786.75,134.91Z"/></g></g></svg>