<svg xmlns="http://www.w3.org/2000/svg" xmlns:xlink="http://www.w3.org/1999/xlink" viewBox="0 0 1000 1010.09"><defs><style>.cls-1{fill:url(#linear-gradient);}.cls-2{fill:url(#linear-gradient-2);}.cls-3{fill:url(#linear-gradient-3);}.cls-4{fill:url(#linear-gradient-4);}.cls-5{fill:url(#linear-gradient-5);}.cls-6{fill:url(#linear-gradient-6);}.cls-7{fill:url(#linear-gradient-7);}.cls-8{fill:url(#linear-gradient-8);}.cls-9{fill:url(#linear-gradient-9);}.cls-10{fill:url(#linear-gradient-10);}.cls-11{fill:url(#linear-gradient-11);}.cls-12{fill:url(#linear-gradient-12);}.cls-13{fill:url(#linear-gradient-13);}.cls-14{fill:url(#linear-gradient-14);}.cls-15{fill:url(#linear-gradient-15);}.cls-16{fill:url(#linear-gradient-16);}.cls-17{fill:url(#linear-gradient-17);}.cls-18{fill:url(#linear-gradient-18);}.cls-19{fill:url(#linear-gradient-19);}.cls-20{fill:url(#linear-gradient-20);}.cls-21{fill:url(#linear-gradient-21);}.cls-22{fill:url(#linear-gradient-22);}.cls-23{fill:url(#linear-gradient-23);}.cls-24{fill:url(#linear-gradient-24);}.cls-25{fill:url(#linear-gradient-25);}.cls-26{fill:url(#linear-gradient-26);}.cls-27{fill:url(#linear-gradient-27);}.cls-28{fill:url(#linear-gradient-28);}.cls-29{fill:url(#linear-gradient-29);}.cls-30{fill:url(#linear-gradient-30);}.cls-31{fill:url(#linear-gradient-31);}.cls-32{fill:url(#linear-gradient-32);}.cls-33{fill:url(#linear-gradient-33);}.cls-34{fill:url(#linear-gradient-34);}.cls-35{fill:url(#linear-gradient-35);}.cls-36{fill:url(#linear-gradient-36);}.cls-37{fill:url(#linear-gradient-37);}.cls-38{fill:url(#linear-gradient-38);}.cls-39{fill:url(#linear-gradient-39);}.cls-40{fill:url(#linear-gradient-40);}.cls-41{fill:url(#linear-gradient-41);}.cls-42{fill:url(#linear-gradient-42);}.cls-43{fill:url(#linear-gradient-43);}.cls-44{fill:url(#linear-gradient-44);}.cls-45{fill:url(#linear-gradient-45);}.cls-46{fill:url(#linear-gradient-46);}</style><linearGradient id="linear-gradient" x1="15.37" y1="49.54" x2="808.03" y2="1040.37" gradientUnits="userSpaceOnUse"><stop offset="0" stop-color="#ff9f4f"/><stop offset="1" stop-color="#ff4e63"/></linearGradient><linearGradient id="linear-gradient-2" x1="75.95" y1="1.08" x2="868.61" y2="991.9" xlink:href="#linear-gradient"/><linearGradient id="linear-gradient-3" x1="16.24" y1="48.85" x2="808.9" y2="1039.67" xlink:href="#linear-gradient"/><linearGradient id="linear-gradient-4" x1="59.71" y1="14.07" x2="852.37" y2="1004.9" xlink:href="#linear-gradient"/><linearGradient id="linear-gradient-5" x1="114" y1="-29.37" x2="906.66" y2="961.46" xlink:href="#linear-gradient"/><linearGradient id="linear-gradient-6" x1="-130.46" y1="167.43" x2="661.45" y2="1157.32" xlink:href="#linear-gradient"/><linearGradient id="linear-gradient-7" x1="-81.49" y1="130.48" x2="708.88" y2="1118.44" xlink:href="#linear-gradient"/><linearGradient id="linear-gradient-8" x1="189.5" y1="-88.12" x2="980.12" y2="900.15" xlink:href="#linear-gradient"/><linearGradient id="linear-gradient-9" x1="283.01" y1="-164.36" x2="1075.28" y2="825.98" xlink:href="#linear-gradient"/><linearGradient id="linear-gradient-10" x1="336.79" y1="-210.42" x2="1131.46" y2="782.92" xlink:href="#linear-gradient"/><linearGradient id="linear-gradient-11" x1="-146.68" y1="179.18" x2="645.98" y2="1170" xlink:href="#linear-gradient"/><linearGradient id="linear-gradient-12" x1="88.75" y1="-9.17" x2="881.42" y2="981.66" xlink:href="#linear-gradient"/><linearGradient id="linear-gradient-13" x1="91.26" y1="-11.17" x2="883.92" y2="979.65" xlink:href="#linear-gradient"/><linearGradient id="linear-gradient-14" x1="161.05" y1="-67" x2="953.71" y2="923.82" xlink:href="#linear-gradient"/><linearGradient id="linear-gradient-15" x1="199.26" y1="-97.58" x2="991.92" y2="893.25" xlink:href="#linear-gradient"/><linearGradient id="linear-gradient-16" x1="458.1" y1="-304.64" x2="1250.76" y2="686.18" xlink:href="#linear-gradient"/><linearGradient id="linear-gradient-17" x1="365.85" y1="-230.84" x2="1158.51" y2="759.98" xlink:href="#linear-gradient"/><linearGradient id="linear-gradient-18" x1="-272.42" y1="279.77" x2="520.24" y2="1270.6" xlink:href="#linear-gradient"/><linearGradient id="linear-gradient-19" x1="202.83" y1="-100.43" x2="995.49" y2="890.4" xlink:href="#linear-gradient"/><linearGradient id="linear-gradient-20" x1="176.86" y1="-79.65" x2="969.52" y2="911.17" xlink:href="#linear-gradient"/><linearGradient id="linear-gradient-21" x1="449.12" y1="-297.46" x2="1241.78" y2="693.37" xlink:href="#linear-gradient"/><linearGradient id="linear-gradient-22" x1="359.61" y1="-225.85" x2="1152.27" y2="764.97" xlink:href="#linear-gradient"/><linearGradient id="linear-gradient-23" x1="273.02" y1="-156.58" x2="1065.68" y2="834.24" xlink:href="#linear-gradient"/><linearGradient id="linear-gradient-24" x1="-262.35" y1="271.71" x2="530.31" y2="1262.54" xlink:href="#linear-gradient"/><linearGradient id="linear-gradient-25" x1="-341.28" y1="334.86" x2="451.38" y2="1325.69" xlink:href="#linear-gradient"/><linearGradient id="linear-gradient-26" x1="-47.05" y1="99.48" x2="745.61" y2="1090.3" xlink:href="#linear-gradient"/><linearGradient id="linear-gradient-27" x1="-85.42" y1="130.17" x2="707.24" y2="1120.99" xlink:href="#linear-gradient"/><linearGradient id="linear-gradient-28" x1="-116.42" y1="154.97" x2="676.24" y2="1145.8" xlink:href="#linear-gradient"/><linearGradient id="linear-gradient-29" x1="425.66" y1="-274.03" x2="1213.6" y2="710.91" xlink:href="#linear-gradient"/><linearGradient id="linear-gradient-30" x1="459.81" y1="-301.29" x2="1247.95" y2="683.88" xlink:href="#linear-gradient"/><linearGradient id="linear-gradient-31" x1="427.37" y1="-277.67" x2="1217.79" y2="710.36" xlink:href="#linear-gradient"/><linearGradient id="linear-gradient-32" x1="454.54" y1="-299.67" x2="1245.06" y2="688.49" xlink:href="#linear-gradient"/><linearGradient id="linear-gradient-33" x1="251.12" y1="-131.21" x2="1039.07" y2="853.73" xlink:href="#linear-gradient"/><linearGradient id="linear-gradient-34" x1="285.22" y1="-158.54" x2="1073.35" y2="826.63" xlink:href="#linear-gradient"/><linearGradient id="linear-gradient-35" x1="252.26" y1="-136.01" x2="1042.69" y2="852.01" xlink:href="#linear-gradient"/><linearGradient id="linear-gradient-36" x1="279.4" y1="-158.05" x2="1069.93" y2="830.1" xlink:href="#linear-gradient"/><linearGradient id="linear-gradient-37" x1="-289.62" y1="299.62" x2="498.33" y2="1284.55" xlink:href="#linear-gradient"/><linearGradient id="linear-gradient-38" x1="-255.49" y1="272.32" x2="532.65" y2="1257.49" xlink:href="#linear-gradient"/><linearGradient id="linear-gradient-39" x1="-292.56" y1="289.97" x2="504.45" y2="1286.24" xlink:href="#linear-gradient"/><linearGradient id="linear-gradient-40" x1="-264.99" y1="268.47" x2="531.83" y2="1264.49" xlink:href="#linear-gradient"/><linearGradient id="linear-gradient-41" x1="-6.12" y1="64.75" x2="795.64" y2="1066.94" xlink:href="#linear-gradient"/><linearGradient id="linear-gradient-42" x1="27.81" y1="37.2" x2="829.2" y2="1038.93" xlink:href="#linear-gradient"/><linearGradient id="linear-gradient-43" x1="-1.69" y1="63.98" x2="788.73" y2="1052" xlink:href="#linear-gradient"/><linearGradient id="linear-gradient-44" x1="25.52" y1="42.03" x2="816.05" y2="1030.18" xlink:href="#linear-gradient"/><linearGradient id="linear-gradient-45" x1="-182.94" y1="208.19" x2="609.72" y2="1199.02" xlink:href="#linear-gradient"/><linearGradient id="linear-gradient-46" x1="328.3" y1="-200.8" x2="1120.96" y2="790.03" xlink:href="#linear-gradient"/></defs><g id="Layer_2" data-name="Layer 2"><g id="Layer_1-2" data-name="Layer 1"><path class="cls-1" d="M756,808.15a18.15,18.15,0,0,1-2.53-.18h0L215,728.88a17.34,17.34,0,0,1-14.64-19.68l27.71-188.66a20.6,20.6,0,0,1,23.37-17.39l532,78.15a20.59,20.59,0,0,1,17.38,23.37L773.14,793.33A17.36,17.36,0,0,1,756,808.15ZM218.68,710.87l536.46,78.8L782.7,602a2.25,2.25,0,0,0-1.9-2.55l-532-78.14a2.25,2.25,0,0,0-2.55,1.89Z"/><path class="cls-2" d="M782.14,599.55a9.17,9.17,0,0,1-7-3.26L666,466.77a57.14,57.14,0,0,0-33.51-17.67L434.12,420A57.09,57.09,0,0,0,397,427.26L255.14,519.91a9.17,9.17,0,1,1-10-15.36l142-92.76.33-.21a75.48,75.48,0,0,1,49.38-9.76L635.11,431a75.49,75.49,0,0,1,44.48,23.55c.09.09.17.19.26.29l109.3,129.67a9.17,9.17,0,0,1-7,15.09Z"/><path class="cls-3" d="M396.19,750.24a10.17,10.17,0,0,1-1.34-.09,9.17,9.17,0,0,1-7.74-10.41l29.81-203a9.3,9.3,0,0,1,.88-2.78l59.9-119.42a9.17,9.17,0,1,1,16.4,8.23l-59.24,118.1L405.26,742.4A9.18,9.18,0,0,1,396.19,750.24Z"/><path class="cls-4" d="M287,369.51a9.25,9.25,0,0,1-3.45-.67l-47.8-19.42a9.19,9.19,0,0,1-5.45-6.31L200.64,222.47a9.18,9.18,0,0,1,6.72-11.1l81.12-20a9.18,9.18,0,0,1,11.1,6.71l29.68,120.64a9.19,9.19,0,0,1-1.91,8.12L294,366.27A9.17,9.17,0,0,1,287,369.51Zm-40-35.33,37.29,15.16,26-30.73L284,211.43,220.65,227Z"/><path class="cls-5" d="M708.54,512.22a9.72,9.72,0,0,1-1.31-.09l-358-51c-.69-.1-16.2-2.5-32.56-15.36-14.72-11.57-33.27-34.27-38-76.7a9.18,9.18,0,0,1,18.24-2c7.56,67.27,52.72,75.57,55,75.95l358,51a9.17,9.17,0,0,1-1.28,18.25Z"/><path class="cls-6" d="M500,1010.09a9,9,0,0,1-9-9.17V910.09a9,9,0,1,1,18,0v90.83A9,9,0,0,1,500,1010.09Z"/><path class="cls-7" d="M500,873.39a9,9,0,0,1-9-9.17V850.46a9,9,0,1,1,18,0v13.76A9,9,0,0,1,500,873.39Z"/><path class="cls-8" d="M500,318.35a9,9,0,0,1-9-9.18V290.83a9,9,0,1,1,18,0v18.34A9,9,0,0,1,500,318.35Z"/><path class="cls-9" d="M500,213.76a9,9,0,0,1-9-9.17V9.17a9,9,0,1,1,18,0V204.59A9,9,0,0,1,500,213.76Z"/><path class="cls-10" d="M990.83,510.55H821.1a9.51,9.51,0,0,1,0-19H990.83a9.51,9.51,0,0,1,0,19Z"/><path class="cls-11" d="M172.05,493.19c-.3,0-.61,0-.93-.05L8.25,476.7a9.18,9.18,0,0,1,1.85-18.26L173,474.89a9.17,9.17,0,0,1-.92,18.3Z"/><path class="cls-12" d="M878.54,987.64A9.15,9.15,0,0,1,871.2,984l-10-13.31a9.17,9.17,0,1,1,14.67-11l10,13.32a9.18,9.18,0,0,1-7.33,14.68Z"/><path class="cls-13" d="M839.33,935.41a9.15,9.15,0,0,1-7.34-3.67L775.15,856a9.17,9.17,0,1,1,14.67-11l56.84,75.72a9.18,9.18,0,0,1-7.33,14.68Z"/><path class="cls-14" d="M418.64,309.56a9.18,9.18,0,0,1-8.55-5.83L340.6,126a9.17,9.17,0,0,1,17.08-6.68L427.18,297a9.17,9.17,0,0,1-8.54,12.52Z"/><path class="cls-15" d="M327.53,76.61A9.17,9.17,0,0,1,319,70.78l-7.17-18.34a9.17,9.17,0,1,1,17.08-6.69l7.18,18.34A9.19,9.19,0,0,1,330.86,76,9.06,9.06,0,0,1,327.53,76.61Z"/><path class="cls-16" d="M913.55,292.76a9.18,9.18,0,0,1-4.27-17.3l21.32-11.19a9.18,9.18,0,0,1,8.53,16.25L917.8,291.71A9.18,9.18,0,0,1,913.55,292.76Z"/><path class="cls-17" d="M778.57,363.58a9.18,9.18,0,0,1-4.27-17.31l78.15-41A9.18,9.18,0,0,1,861,321.52l-78.15,41A9.08,9.08,0,0,1,778.57,363.58Z"/><path class="cls-18" d="M41.56,750.25a9.18,9.18,0,0,1-4.27-17.31l77.57-40.69a9.17,9.17,0,0,1,8.52,16.25L45.81,749.19A9,9,0,0,1,41.56,750.25Z"/><path class="cls-19" d="M979.06,855.45a9.08,9.08,0,0,1-5.13-1.58l-82.39-55.78a9.17,9.17,0,1,1,10.29-15.19l82.38,55.77a9.18,9.18,0,0,1-5.15,16.78Z"/><path class="cls-20" d="M850.6,768.47a9.14,9.14,0,0,1-5.14-1.58l-11.28-7.63a9.18,9.18,0,0,1,10.29-15.2l11.28,7.64a9.17,9.17,0,0,1-5.15,16.77Z"/><path class="cls-21" d="M764.82,124.94a9.17,9.17,0,0,1-7.56-14.37l13.74-20A9.18,9.18,0,0,1,786.13,101l-13.74,20A9.16,9.16,0,0,1,764.82,124.94Z"/><path class="cls-22" d="M676.67,253.27a9.17,9.17,0,0,1-7.56-14.37l54.42-79.22a9.17,9.17,0,1,1,15.12,10.39l-54.42,79.22A9.13,9.13,0,0,1,676.67,253.27Z"/><path class="cls-23" d="M632,318.35A9.17,9.17,0,0,1,624.4,304L637,285.61A9.17,9.17,0,1,1,652.15,296l-12.62,18.38A9.16,9.16,0,0,1,632,318.35Z"/><path class="cls-24" d="M154.8,859.42a9.18,9.18,0,0,1-6.63-15.52l49.79-52a9.17,9.17,0,0,1,13.25,12.69l-49.79,52A9.1,9.1,0,0,1,154.8,859.42Z"/><path class="cls-25" d="M104.15,912.27a9.18,9.18,0,0,1-6.62-15.52l10-10.42A9.18,9.18,0,0,1,120.76,899l-10,10.42A9.14,9.14,0,0,1,104.15,912.27Z"/><path class="cls-26" d="M185.63,389.86a9.28,9.28,0,0,1-2.69-.4l-20.42-6.26a9.17,9.17,0,1,1,5.37-17.54l20.42,6.25a9.18,9.18,0,0,1-2.68,17.95Z"/><path class="cls-27" d="M119.19,369.52a9,9,0,0,1-2.68-.41L62.27,352.5A9.17,9.17,0,0,1,67.64,335l54.24,16.61a9.18,9.18,0,0,1-2.69,17.95Z"/><path class="cls-28" d="M26.76,341.21a9,9,0,0,1-2.69-.41L20,339.55A9.17,9.17,0,0,1,25.38,322l4.06,1.25a9.18,9.18,0,0,1-2.68,17.95Z"/><path class="cls-29" d="M823.85,223.55H809.17a9,9,0,1,1,0-18h14.68a9,9,0,1,1,0,18Z"/><path class="cls-30" d="M880.73,223.55H864.22a9,9,0,1,1,0-18h16.51a9,9,0,1,1,0,18Z"/><path class="cls-31" d="M844,259.63a9,9,0,0,1-9-9.17V235.78a9,9,0,1,1,18,0v14.68A9,9,0,0,1,844,259.63Z"/><path class="cls-32" d="M844,204.59a9,9,0,0,1-9-9.18V178.9a9,9,0,1,1,18,0v16.51A9,9,0,0,1,844,204.59Z"/><path class="cls-33" d="M892.66,670.55H878a9,9,0,1,1,0-18h14.68a9,9,0,1,1,0,18Z"/><path class="cls-34" d="M949.54,670.55H933a9,9,0,1,1,0-18h16.51a9,9,0,1,1,0,18Z"/><path class="cls-35" d="M913,706.42a9,9,0,0,1-9-9.17V682.57a9,9,0,1,1,18,0v14.68A9,9,0,0,1,913,706.42Z"/><path class="cls-36" d="M913,651.38a9,9,0,0,1-9-9.18V625.69a9,9,0,1,1,18,0V642.2A9,9,0,0,1,913,651.38Z"/><path class="cls-37" d="M219.27,935.55H204.59a9,9,0,1,1,0-18h14.68a9,9,0,1,1,0,18Z"/><path class="cls-38" d="M276.15,935.55H259.63a9,9,0,1,1,0-18h16.52a9,9,0,1,1,0,18Z"/><path class="cls-39" d="M239.5,971.56a9.46,9.46,0,0,1-9.5-9.17V947.71a9.51,9.51,0,0,1,19,0v14.68A9.46,9.46,0,0,1,239.5,971.56Z"/><path class="cls-40" d="M239.5,916.51a9.45,9.45,0,0,1-9.5-9.17V890.83a9.51,9.51,0,0,1,19,0v16.51A9.45,9.45,0,0,1,239.5,916.51Z"/><path class="cls-41" d="M92.66,188.55H78a9.51,9.51,0,0,1,0-19H92.66a9.51,9.51,0,0,1,0,19Z"/><path class="cls-42" d="M149.54,188.55H133a9.51,9.51,0,0,1,0-19h16.51a9.51,9.51,0,0,1,0,19Z"/><path class="cls-43" d="M113,223.85a9,9,0,0,1-9-9.17V200a9,9,0,1,1,18,0v14.68A9,9,0,0,1,113,223.85Z"/><path class="cls-44" d="M113,168.81a9,9,0,0,1-9-9.18V143.12a9,9,0,1,1,18,0v16.51A9,9,0,0,1,113,168.81Z"/><path class="cls-45" d="M327.52,870.87a24.6,24.6,0,1,1,24.6-24.6A24.63,24.63,0,0,1,327.52,870.87Zm0-30.85a6.25,6.25,0,1,0,6.25,6.25A6.26,6.26,0,0,0,327.52,840Z"/><path class="cls-46" d="M823.85,443.24a24.6,24.6,0,1,1,24.6-24.6A24.62,24.62,0,0,1,823.85,443.24Zm0-30.84a6.25,6.25,0,1,0,6.25,6.24A6.25,6.25,0,0,0,823.85,412.4Z"/></g></g></svg>