<svg xmlns="http://www.w3.org/2000/svg" xmlns:xlink="http://www.w3.org/1999/xlink" viewBox="0 0 928.43 1009"><defs><style>.cls-1{fill:url(#linear-gradient);}.cls-2{fill:url(#linear-gradient-2);}.cls-3{fill:url(#linear-gradient-3);}.cls-4{fill:url(#linear-gradient-4);}.cls-5{fill:url(#linear-gradient-5);}.cls-6{fill:url(#linear-gradient-6);}.cls-7{fill:url(#linear-gradient-7);}.cls-8{fill:url(#linear-gradient-8);}.cls-9{fill:url(#linear-gradient-9);}.cls-10{fill:url(#linear-gradient-10);}.cls-11{fill:url(#linear-gradient-11);}.cls-12{fill:url(#linear-gradient-12);}.cls-13{fill:url(#linear-gradient-13);}.cls-14{fill:url(#linear-gradient-14);}.cls-15{fill:url(#linear-gradient-15);}.cls-16{fill:url(#linear-gradient-16);}.cls-17{fill:url(#linear-gradient-17);}.cls-18{fill:url(#linear-gradient-18);}.cls-19{fill:url(#linear-gradient-19);}.cls-20{fill:url(#linear-gradient-20);}.cls-21{fill:url(#linear-gradient-21);}.cls-22{fill:url(#linear-gradient-22);}.cls-23{fill:url(#linear-gradient-23);}.cls-24{fill:url(#linear-gradient-24);}.cls-25{fill:url(#linear-gradient-25);}.cls-26{fill:url(#linear-gradient-26);}.cls-27{fill:url(#linear-gradient-27);}.cls-28{fill:url(#linear-gradient-28);}.cls-29{fill:url(#linear-gradient-29);}.cls-30{fill:url(#linear-gradient-30);}.cls-31{fill:url(#linear-gradient-31);}.cls-32{fill:url(#linear-gradient-32);}.cls-33{fill:url(#linear-gradient-33);}.cls-34{fill:url(#linear-gradient-34);}.cls-35{fill:url(#linear-gradient-35);}.cls-36{fill:url(#linear-gradient-36);}.cls-37{fill:url(#linear-gradient-37);}.cls-38{fill:url(#linear-gradient-38);}.cls-39{fill:url(#linear-gradient-39);}.cls-40{fill:url(#linear-gradient-40);}.cls-41{fill:url(#linear-gradient-41);}</style><linearGradient id="linear-gradient" x1="113.11" y1="-33.49" x2="952.76" y2="968.19" gradientUnits="userSpaceOnUse"><stop offset="0" stop-color="#ff9f4f"/><stop offset="1" stop-color="#ff4e63"/></linearGradient><linearGradient id="linear-gradient-2" x1="128.92" y1="-46.75" x2="968.57" y2="954.94" xlink:href="#linear-gradient"/><linearGradient id="linear-gradient-3" x1="36.4" y1="30.8" x2="876.05" y2="1032.49" xlink:href="#linear-gradient"/><linearGradient id="linear-gradient-4" x1="181.96" y1="-91.21" x2="1021.62" y2="910.48" xlink:href="#linear-gradient"/><linearGradient id="linear-gradient-5" x1="1.53" y1="60.03" x2="841.18" y2="1061.72" xlink:href="#linear-gradient"/><linearGradient id="linear-gradient-6" x1="-29.58" y1="86.11" x2="810.07" y2="1087.8" xlink:href="#linear-gradient"/><linearGradient id="linear-gradient-7" x1="85.82" y1="-10.62" x2="925.47" y2="991.07" xlink:href="#linear-gradient"/><linearGradient id="linear-gradient-8" x1="135.45" y1="-52.22" x2="975.09" y2="949.47" xlink:href="#linear-gradient"/><linearGradient id="linear-gradient-9" x1="112.59" y1="-33.06" x2="952.24" y2="968.63" xlink:href="#linear-gradient"/><linearGradient id="linear-gradient-10" x1="48" y1="21.09" x2="887.65" y2="1022.77" xlink:href="#linear-gradient"/><linearGradient id="linear-gradient-11" x1="12.53" y1="50.82" x2="852.18" y2="1052.5" xlink:href="#linear-gradient"/><linearGradient id="linear-gradient-12" x1="77.43" y1="-3.58" x2="917.08" y2="998.11" xlink:href="#linear-gradient"/><linearGradient id="linear-gradient-13" x1="383.31" y1="-259.98" x2="1222.96" y2="741.71" xlink:href="#linear-gradient"/><linearGradient id="linear-gradient-14" x1="369.11" y1="-248.73" x2="1209.51" y2="753.85" xlink:href="#linear-gradient"/><linearGradient id="linear-gradient-15" x1="448.33" y1="-322.26" x2="1296.06" y2="689.07" xlink:href="#linear-gradient"/><linearGradient id="linear-gradient-16" x1="481.25" y1="-349.98" x2="1328.66" y2="660.96" xlink:href="#linear-gradient"/><linearGradient id="linear-gradient-17" x1="455.83" y1="-317.65" x2="1292.42" y2="680.39" xlink:href="#linear-gradient"/><linearGradient id="linear-gradient-18" x1="483.32" y1="-341.03" x2="1320.05" y2="657.18" xlink:href="#linear-gradient"/><linearGradient id="linear-gradient-19" x1="-323.18" y1="325.65" x2="524.55" y2="1336.98" xlink:href="#linear-gradient"/><linearGradient id="linear-gradient-20" x1="-290.28" y1="297.9" x2="557.13" y2="1308.84" xlink:href="#linear-gradient"/><linearGradient id="linear-gradient-21" x1="-316.64" y1="329.26" x2="519.95" y2="1327.3" xlink:href="#linear-gradient"/><linearGradient id="linear-gradient-22" x1="-289.15" y1="305.89" x2="547.58" y2="1304.1" xlink:href="#linear-gradient"/><linearGradient id="linear-gradient-23" x1="-276.23" y1="281.87" x2="571.51" y2="1293.2" xlink:href="#linear-gradient"/><linearGradient id="linear-gradient-24" x1="-243.23" y1="254.23" x2="604.17" y2="1265.17" xlink:href="#linear-gradient"/><linearGradient id="linear-gradient-25" x1="-266.6" y1="289.04" x2="569.99" y2="1287.08" xlink:href="#linear-gradient"/><linearGradient id="linear-gradient-26" x1="-239.15" y1="265.64" x2="597.58" y2="1263.84" xlink:href="#linear-gradient"/><linearGradient id="linear-gradient-27" x1="-123.57" y1="164.9" x2="716.07" y2="1166.59" xlink:href="#linear-gradient"/><linearGradient id="linear-gradient-28" x1="-217.97" y1="244.03" x2="621.68" y2="1245.72" xlink:href="#linear-gradient"/><linearGradient id="linear-gradient-29" x1="-163.82" y1="198.64" x2="675.83" y2="1200.33" xlink:href="#linear-gradient"/><linearGradient id="linear-gradient-30" x1="-165.8" y1="200.3" x2="673.85" y2="1201.98" xlink:href="#linear-gradient"/><linearGradient id="linear-gradient-31" x1="-243.05" y1="265.39" x2="596.26" y2="1266.69" xlink:href="#linear-gradient"/><linearGradient id="linear-gradient-32" x1="-192.44" y1="223.08" x2="646.8" y2="1224.29" xlink:href="#linear-gradient"/><linearGradient id="linear-gradient-33" x1="-238.4" y1="264" x2="598.58" y2="1262.5" xlink:href="#linear-gradient"/><linearGradient id="linear-gradient-34" x1="-250.6" y1="274.45" x2="586.38" y2="1272.95" xlink:href="#linear-gradient"/><linearGradient id="linear-gradient-35" x1="-266.8" y1="280.61" x2="576.77" y2="1286.99" xlink:href="#linear-gradient"/><linearGradient id="linear-gradient-36" x1="-173.11" y1="209.54" x2="663.89" y2="1208.07" xlink:href="#linear-gradient"/><linearGradient id="linear-gradient-37" x1="-185.31" y1="219.99" x2="651.69" y2="1218.51" xlink:href="#linear-gradient"/><linearGradient id="linear-gradient-38" x1="-201.84" y1="225.77" x2="641.69" y2="1232.09" xlink:href="#linear-gradient"/><linearGradient id="linear-gradient-39" x1="24.77" y1="40.56" x2="864.42" y2="1042.25" xlink:href="#linear-gradient"/><linearGradient id="linear-gradient-40" x1="-147.31" y1="184.8" x2="692.34" y2="1186.49" xlink:href="#linear-gradient"/><linearGradient id="linear-gradient-41" x1="338.36" y1="-222.3" x2="1178" y2="779.38" xlink:href="#linear-gradient"/></defs><g id="Layer_2" data-name="Layer 2"><g id="Layer_1-2" data-name="Layer 1"><path class="cls-1" d="M665.91,678a9.33,9.33,0,0,1-3.38-.64L241.59,511.42a43.84,43.84,0,0,1-24.72-56.89l94.59-240a43.85,43.85,0,0,1,56.89-24.72L757.06,343.05a43.9,43.9,0,0,1,24.72,56.88L716,566.94a9.21,9.21,0,0,1-17.13-6.75l65.83-167a25.43,25.43,0,0,0-14.34-33L361.6,207a25.45,25.45,0,0,0-33,14.34L234,461.28a25.44,25.44,0,0,0,14.34,33L669.29,660.22A9.21,9.21,0,0,1,665.91,678Z"/><path class="cls-2" d="M745.84,757.92a9.2,9.2,0,0,1-6.51-2.69L607.13,623a57.66,57.66,0,0,1,81.55-81.55L792.43,645.23a9.21,9.21,0,0,1-13,13L675.66,554.49A39.25,39.25,0,0,0,620.15,610l132.2,132.21a9.2,9.2,0,0,1-6.51,15.71Z"/><path class="cls-3" d="M651.06,753.71a78.37,78.37,0,0,1-26.38-4.54L495.37,703a56.08,56.08,0,0,1-37-57.33l3.92-47.89a9.21,9.21,0,0,1,18.35,1.51l-3.92,47.88a37.65,37.65,0,0,0,24.84,38.49l129.31,46.15a60.68,60.68,0,0,0,53.45-6.4L709,709.23a9.2,9.2,0,1,1,10.1,15.39l-24.67,16.2A79.13,79.13,0,0,1,651.06,753.71Z"/><path class="cls-4" d="M914,941.15a9.21,9.21,0,0,1-9.13-8.12l-37-310.85a120.63,120.63,0,0,0-68.78-95.07l-65.83-30.7A9.2,9.2,0,1,1,741,479.73l65.83,30.69A139,139,0,0,1,886.14,620l37,310.86a9.21,9.21,0,0,1-8.06,10.23A10.14,10.14,0,0,1,914,941.15Z"/><path class="cls-5" d="M659.06,881.1a33.14,33.14,0,0,1-5.12-.37l-98.35-15.1a59.75,59.75,0,0,1-50.1-51.84l-3.61-30.37a59.19,59.19,0,0,1-28.49-40.83,10,10,0,0,1-.14-1.45L472,683.7a9.21,9.21,0,0,1,18.41-.38L491.64,740A40.89,40.89,0,0,0,524,772.35l118.69,23.42a52,52,0,0,0,30.6-3.21L728,769.23A9.22,9.22,0,0,1,740.39,775l8.16,26.53c2,6.45,2.12,15,.43,26A43.35,43.35,0,0,1,722.47,861c-23,9.32-37.55,14.92-43.3,16.62C671.27,879.94,664.63,881.1,659.06,881.1ZM521.27,790.58l2.5,21a41.28,41.28,0,0,0,34.61,35.81l98.35,15.1c2.09.32,7.1.41,17.19-2.59,5-1.49,19.82-7.19,41.63-16a24.85,24.85,0,0,0,15.23-19.13c1.63-10.69.8-15.76.17-17.84l-5.16-16.76L680.55,809.5a70.34,70.34,0,0,1-41.39,4.33Z"/><path class="cls-6" d="M708.08,929.83a9.81,9.81,0,0,1-1.42-.11l-66.2-10.24a66.48,66.48,0,0,1-54.58-50.09A9.2,9.2,0,0,1,603.76,865a48.13,48.13,0,0,0,39.51,36.25l66.21,10.24a9.21,9.21,0,0,1-1.4,18.31Z"/><path class="cls-7" d="M731.58,786.91a9.21,9.21,0,0,1-9-7.39l-9.51-47.19a9.21,9.21,0,0,1,18.05-3.64l9.51,47.19a9.21,9.21,0,0,1-7.2,10.85A9.62,9.62,0,0,1,731.58,786.91Z"/><path class="cls-8" d="M455.7,370.13a40.36,40.36,0,1,1,16.15-3.4A40.2,40.2,0,0,1,455.7,370.13Zm0-62.18a21.88,21.88,0,1,0,8,1.51A21.85,21.85,0,0,0,455.69,308Z"/><path class="cls-9" d="M397.82,347.5A40.36,40.36,0,1,1,414,344.1,40.25,40.25,0,0,1,397.82,347.5Zm0-62.18a21.91,21.91,0,1,0,8,1.51A21.8,21.8,0,0,0,397.8,285.32Z"/><path class="cls-10" d="M479.28,482.43a9.22,9.22,0,0,1-3.35-.64L320.36,421a9.21,9.21,0,0,1,6.7-17.15l155.58,60.82a9.21,9.21,0,0,1-3.36,17.79Z"/><path class="cls-11" d="M460.07,531.55a9.2,9.2,0,0,1-3.35-.63L301.15,470.1A9.21,9.21,0,1,1,307.86,453l155.57,60.82a9.21,9.21,0,0,1-3.36,17.78Z"/><path class="cls-12" d="M599.44,586a9.2,9.2,0,0,1-3.35-.63L490.5,544.12A9.21,9.21,0,0,1,497.2,527l105.6,41.29A9.21,9.21,0,0,1,599.44,586Z"/><path class="cls-13" d="M677.85,240.38a9.21,9.21,0,0,1-4.72-1.31c-58.37-34.85-82.68-84.89-92.79-120.74-10.93-38.76-8.11-69.13-8-70.4a9.21,9.21,0,0,1,7.57-8.17c39.88-7,92.69-38.16,93.22-38.47a9.23,9.23,0,0,1,9.41,0c.53.32,53.28,31.5,93.09,38.47a9.21,9.21,0,0,1,7.59,8.38c.1,1.26,2.22,31.42-9,70-10.41,35.72-34.73,85.67-91.5,120.83A9.17,9.17,0,0,1,677.85,240.38ZM590.4,56.43A203.45,203.45,0,0,0,598.25,114c13,45.34,39.7,81.07,79.51,106.3,39-25.61,65.47-61.67,78.77-107.29A211.14,211.14,0,0,0,765,56.39c-16.75-3.84-36.49-11.16-58.8-21.82-12.58-6-22.78-11.58-28.39-14.74C672.23,23,662,28.56,649.4,34.57,627,45.26,607.18,52.6,590.4,56.43Z"/><path class="cls-14" d="M677.5,233.8a9.47,9.47,0,0,1-9.5-9.21V13.76a9.5,9.5,0,0,1,19,0V224.59A9.47,9.47,0,0,1,677.5,233.8Z"/><path class="cls-15" d="M850.7,158.47H836a9.5,9.5,0,0,1,0-19H850.7a9.5,9.5,0,0,1,0,19Z"/><path class="cls-16" d="M907.78,158.47H891.21a9.5,9.5,0,0,1,0-19h16.57a9.5,9.5,0,0,1,0,19Z"/><path class="cls-17" d="M871,194.21a9,9,0,0,1-9-9.21V170.27a9,9,0,1,1,18,0V185A9,9,0,0,1,871,194.21Z"/><path class="cls-18" d="M871,139a9,9,0,0,1-9-9.21V113.19a9,9,0,1,1,18,0v16.57A9,9,0,0,1,871,139Z"/><path class="cls-19" d="M23.94,740.47H9.21a9.5,9.5,0,0,1,0-19H23.94a9.5,9.5,0,0,1,0,19Z"/><path class="cls-20" d="M81,740.47H64.45a9.5,9.5,0,0,1,0-19H81a9.5,9.5,0,0,1,0,19Z"/><path class="cls-21" d="M44,776.07a9,9,0,0,1-9-9.21V752.13a9,9,0,1,1,18,0v14.73A9,9,0,0,1,44,776.07Z"/><path class="cls-22" d="M44,720.83a9,9,0,0,1-9-9.21V695.05a9,9,0,1,1,18,0v16.57A9,9,0,0,1,44,720.83Z"/><path class="cls-23" d="M302.9,973.47H288.17a9.5,9.5,0,0,1,0-19H302.9a9.5,9.5,0,0,1,0,19Z"/><path class="cls-24" d="M360,973.47H343.41a9.5,9.5,0,0,1,0-19H360a9.5,9.5,0,0,1,0,19Z"/><path class="cls-25" d="M323,1009a9,9,0,0,1-9-9.21V985.06a9,9,0,1,1,18,0v14.73A9,9,0,0,1,323,1009Z"/><path class="cls-26" d="M323,953.76a9,9,0,0,1-9-9.21V928a9,9,0,1,1,18,0v16.57A9,9,0,0,1,323,953.76Z"/><path class="cls-27" d="M417,834.45a24.68,24.68,0,1,1,24.68-24.68A24.71,24.71,0,0,1,417,834.45Zm0-31a6.27,6.27,0,1,0,6.27,6.27A6.28,6.28,0,0,0,417,803.5Z"/><path class="cls-28" d="M311.31,882.26H175.41a29,29,0,0,1-29-29V735.52a29,29,0,0,1,29-29h135.9a29,29,0,0,1,29,29V853.26A29,29,0,0,1,311.31,882.26ZM175.41,724.94a10.6,10.6,0,0,0-10.58,10.58V853.26a10.6,10.6,0,0,0,10.58,10.59h135.9a10.6,10.6,0,0,0,10.58-10.59V735.52a10.6,10.6,0,0,0-10.58-10.58Z"/><path class="cls-29" d="M296.81,724.73a9.21,9.21,0,0,1-9.2-9.21V672.68a44.25,44.25,0,0,0-88.5,0v42.84a9.21,9.21,0,1,1-18.41,0V672.68a62.66,62.66,0,1,1,125.32,0v42.84A9.21,9.21,0,0,1,296.81,724.73Z"/><path class="cls-30" d="M274.92,724.73a9.22,9.22,0,0,1-9.21-9.21V672.76a22.36,22.36,0,0,0-44.71,0v42.76a9.21,9.21,0,1,1-18.41,0V672.76a40.77,40.77,0,0,1,81.54,0v42.76A9.22,9.22,0,0,1,274.92,724.73Z"/><path class="cls-31" d="M199.57,880.18a9.18,9.18,0,0,1-7.93-13.8L210,834.61V759.16l-18.7-39.28a9.19,9.19,0,1,1,16.6-7.9l19.38,41.16a9.13,9.13,0,0,1,.72,4v80a9,9,0,0,1-1.07,4.6l-19.46,33.89A9.06,9.06,0,0,1,199.57,880.18Z"/><path class="cls-32" d="M285.66,880.18a9.2,9.2,0,0,1-8-4.6l-19.51-33.9a9.13,9.13,0,0,1-1.17-4.6v-80a9.12,9.12,0,0,1,.83-4L277.41,712a9.13,9.13,0,1,1,16.46,7.92L275,759.17v75.44l18.48,31.76a9.17,9.17,0,0,1-3.3,12.58A8.87,8.87,0,0,1,285.66,880.18Z"/><path class="cls-33" d="M218.2,781.47H157.43a9,9,0,1,1,0-18H218.2a9,9,0,1,1,0,18Z"/><path class="cls-34" d="M218.2,806.47H157.43a9,9,0,1,1,0-18H218.2a9,9,0,1,1,0,18Z"/><path class="cls-35" d="M218.2,832.47H157.43a9.5,9.5,0,0,1,0-19H218.2a9.5,9.5,0,0,1,0,19Z"/><path class="cls-36" d="M329.6,781.47H267.91a9,9,0,1,1,0-18H329.6a9,9,0,1,1,0,18Z"/><path class="cls-37" d="M329.6,806.47H267.91a9,9,0,1,1,0-18H329.6a9,9,0,1,1,0,18Z"/><path class="cls-38" d="M329.6,832.47H267.91a9.5,9.5,0,0,1,0-19H329.6a9.5,9.5,0,0,1,0,19Z"/><path class="cls-39" d="M120.65,681.28a9.21,9.21,0,0,1-8.48-5.63A424.7,424.7,0,0,1,503.61,85.47a9.21,9.21,0,0,1,0,18.41,406.65,406.65,0,0,0-374.48,564.6,9.21,9.21,0,0,1-8.48,12.8Z"/><path class="cls-40" d="M503.61,935.11a425.14,425.14,0,0,1-121-17.48A9.2,9.2,0,0,1,387.85,900,407,407,0,0,0,503.61,916.7a414.28,414.28,0,0,0,41.88-2.13,9.21,9.21,0,0,1,1.87,18.32A433.59,433.59,0,0,1,503.61,935.11Z"/><path class="cls-41" d="M914.07,585.22a9.08,9.08,0,0,1-1.46-.12A9.2,9.2,0,0,1,905,574.57,410.14,410.14,0,0,0,910,510.29a404.68,404.68,0,0,0-91.57-257c-.15-.2-16.34-19.94-30.61-33.82a9.21,9.21,0,0,1,12.84-13.2c15,14.63,31.34,34.52,32,35.36a423.21,423.21,0,0,1,95.72,268.66,430,430,0,0,1-5.28,67.17A9.21,9.21,0,0,1,914.07,585.22Z"/></g></g></svg>